<?xml version="1.0" encoding="UTF-8" standalone="no"?>
<svg
   width="120"
   height="380"
   viewBox="0 0 120 380"
   version="1.1"
   id="svg214"
   sodipodi:docname="macrow.svg"
   inkscape:version="1.2.2 (b0a84865, 2022-12-01)"
   xmlns:inkscape="http://www.inkscape.org/namespaces/inkscape"
   xmlns:sodipodi="http://sodipodi.sourceforge.net/DTD/sodipodi-0.dtd"
   xmlns="http://www.w3.org/2000/svg"
   xmlns:svg="http://www.w3.org/2000/svg"
   xmlns:rdf="http://www.w3.org/1999/02/22-rdf-syntax-ns#"
   xmlns:cc="http://creativecommons.org/ns#"
   xmlns:dc="http://purl.org/dc/elements/1.1/">
  <metadata
     id="metadata218">
    <rdf:RDF>
      <cc:Work
         rdf:about="">
        <dc:format>image/svg+xml</dc:format>
        <dc:type
           rdf:resource="http://purl.org/dc/dcmitype/StillImage" />
      </cc:Work>
    </rdf:RDF>
  </metadata>
  <sodipodi:namedview
     pagecolor="#ffffff"
     bordercolor="#666666"
     borderopacity="1"
     objecttolerance="10"
     gridtolerance="10"
     guidetolerance="10"
     inkscape:pageopacity="0"
     inkscape:pageshadow="2"
     inkscape:window-width="1578"
     inkscape:window-height="1387"
     id="namedview216"
     showgrid="false"
     inkscape:zoom="4"
     inkscape:cx="26.625"
     inkscape:cy="287.875"
     inkscape:window-x="0"
     inkscape:window-y="25"
     inkscape:window-maximized="0"
     inkscape:current-layer="svg214"
     inkscape:showpageshadow="2"
     inkscape:pagecheckerboard="0"
     inkscape:deskcolor="#d1d1d1" />
  <defs
     id="defs10">
    <rect
       x="18.563218"
       y="8.1896552"
       width="84.08046"
       height="25.114943"
       id="rect506" />
    <linearGradient
       id="a6287d73-2e3d-4133-aa81-491f0595359d"
       x1="60"
       x2="60"
       y2="380"
       gradientUnits="userSpaceOnUse">
      <stop
         offset="0"
         stop-color="#ebebeb"
         id="stop2" />
      <stop
         offset="1"
         stop-color="#e1e1e1"
         id="stop4" />
    </linearGradient>
  </defs>
  <g
     id="ac161694-2666-4a45-9d4c-73056424c028"
     data-name="FND BG"
     style="fill:#f4e3d7">
    <rect
       width="120"
       height="380"
       fill="url(#a6287d73-2e3d-4133-aa81-491f0595359d)"
       id="rect12"
       style="fill:#f4e3d7" />
  </g>
  <g
     id="b25b4576-f16e-45a7-b274-7378c421459d"
     data-name="FND GRAPH">
    <rect
       x="84.21482"
       y="40.00547"
       width="28.55155"
       height="39.15691"
       rx="2.83465"
       fill="#1f1f1f"
       id="rect29"
       style="fill:#552200" />
    <line
       x1="30.85019"
       y1="64.8652"
       x2="43.16953"
       y2="64.8652"
       fill="none"
       stroke="#1f1f1f"
       stroke-linecap="round"
       stroke-linejoin="round"
       stroke-width="0.8"
       id="line33" />
    <line
       x1="77.14067"
       y1="64.8652"
       x2="84.64297"
       y2="64.8652"
       fill="none"
       stroke="#1f1f1f"
       stroke-linecap="round"
       stroke-linejoin="round"
       stroke-width="0.8"
       id="line35" />
    <g
       id="g43"
       style="fill:#ede4de;fill-opacity:1">
      <line
         x1="60.09361"
         y1="52.34175"
         x2="60.09361"
         y2="48.61849"
         fill="none"
         stroke="#1f1f1f"
         stroke-linecap="round"
         stroke-linejoin="round"
         stroke-width="0.8"
         id="line37"
         style="fill:#ede4de;fill-opacity:1" />
      <path
         d="M68.72922,79.17037a16.7123,16.7123,0,1,0-17.21552.04578"
         fill="none"
         stroke="#1f1f1f"
         stroke-linecap="round"
         stroke-linejoin="round"
         stroke-width="0.8"
         id="path39"
         style="fill:#ede4de;fill-opacity:1" />
      <circle
         cx="60.09359"
         cy="64.8652"
         r="20.69419"
         fill="none"
         opacity="0.69"
         style="isolation:isolate;fill:#ede4de;fill-opacity:1"
         id="circle41" />
    </g>
    <line
       x1="26.06954"
       y1="257.09747"
       x2="43.16953"
       y2="257.09747"
       fill="none"
       stroke="#1f1f1f"
       stroke-linecap="round"
       stroke-linejoin="round"
       stroke-width="0.8"
       id="line67" />
    <line
       x1="77.14067"
       y1="257.09747"
       x2="84.64297"
       y2="257.09747"
       fill="none"
       stroke="#1f1f1f"
       stroke-linecap="round"
       stroke-linejoin="round"
       stroke-width="0.8"
       id="line69" />
    <rect
       x="84.17799"
       y="242.59441"
       width="28.7163"
       height="28.7163"
       rx="2.83465"
       fill="#1f1f1f"
       id="rect71"
       style="fill:#552200" />
    <g
       id="g79"
       style="fill:#ede4de;fill-opacity:1">
      <line
         x1="60.09361"
         y1="244.57402"
         x2="60.09361"
         y2="240.85076"
         fill="none"
         stroke="#1f1f1f"
         stroke-linecap="round"
         stroke-linejoin="round"
         stroke-width="0.8"
         id="line73"
         style="fill:#ede4de;fill-opacity:1" />
      <path
         d="M68.72922,271.40264a16.71231,16.71231,0,1,0-17.21552.04577"
         fill="none"
         stroke="#1f1f1f"
         stroke-linecap="round"
         stroke-linejoin="round"
         stroke-width="0.8"
         id="path75"
         style="fill:#ede4de;fill-opacity:1" />
      <circle
         cx="60.09359"
         cy="257.09747"
         r="20.69419"
         fill="none"
         opacity="0.69"
         style="isolation:isolate;fill:#ede4de;fill-opacity:1"
         id="circle77" />
    </g>
    <line
       x1="26.06954"
       y1="218.6462"
       x2="43.16953"
       y2="218.6462"
       fill="none"
       stroke="#1f1f1f"
       stroke-linecap="round"
       stroke-linejoin="round"
       stroke-width="0.8"
       id="line81" />
    <line
       x1="77.14067"
       y1="218.6462"
       x2="84.64297"
       y2="218.6462"
       fill="none"
       stroke="#1f1f1f"
       stroke-linecap="round"
       stroke-linejoin="round"
       stroke-width="0.8"
       id="line83" />
    <rect
       x="84.17799"
       y="204.14314"
       width="28.7163"
       height="28.7163"
       rx="2.83465"
       fill="#1f1f1f"
       id="rect85"
       style="fill:#552200" />
    <g
       id="g93"
       style="fill:#ede4de;fill-opacity:1">
      <line
         x1="60.09361"
         y1="206.12276"
         x2="60.09361"
         y2="202.39949"
         fill="none"
         stroke="#1f1f1f"
         stroke-linecap="round"
         stroke-linejoin="round"
         stroke-width="0.8"
         id="line87"
         style="fill:#ede4de;fill-opacity:1" />
      <path
         d="M68.72922,232.95138a16.71231,16.71231,0,1,0-17.21552.04577"
         fill="none"
         stroke="#1f1f1f"
         stroke-linecap="round"
         stroke-linejoin="round"
         stroke-width="0.8"
         id="path89"
         style="fill:#ede4de;fill-opacity:1" />
      <circle
         cx="60.09359"
         cy="218.6462"
         r="20.69419"
         fill="none"
         opacity="0.69"
         style="isolation:isolate;fill:#ede4de;fill-opacity:1"
         id="circle91" />
    </g>
    <line
       x1="26.06954"
       y1="180.19494"
       x2="43.16953"
       y2="180.19494"
       fill="none"
       stroke="#1f1f1f"
       stroke-linecap="round"
       stroke-linejoin="round"
       stroke-width="0.8"
       id="line95" />
    <line
       x1="77.14067"
       y1="180.19494"
       x2="84.64297"
       y2="180.19494"
       fill="none"
       stroke="#1f1f1f"
       stroke-linecap="round"
       stroke-linejoin="round"
       stroke-width="0.8"
       id="line97" />
    <rect
       x="84.17799"
       y="165.69187"
       width="28.7163"
       height="28.7163"
       rx="2.83465"
       fill="#1f1f1f"
       id="rect99"
       style="fill:#552200" />
    <g
       id="g107"
       style="fill:#ede4de;fill-opacity:1">
      <line
         x1="60.09361"
         y1="167.67149"
         x2="60.09361"
         y2="163.94822"
         fill="none"
         stroke="#1f1f1f"
         stroke-linecap="round"
         stroke-linejoin="round"
         stroke-width="0.8"
         id="line101"
         style="fill:#ede4de;fill-opacity:1" />
      <path
         d="M68.72922,194.50011a16.71231,16.71231,0,1,0-17.21552.04577"
         fill="none"
         stroke="#1f1f1f"
         stroke-linecap="round"
         stroke-linejoin="round"
         stroke-width="0.8"
         id="path103"
         style="fill:#ede4de;fill-opacity:1" />
      <circle
         cx="60.09359"
         cy="180.19494"
         r="20.69419"
         fill="none"
         opacity="0.69"
         style="isolation:isolate;fill:#ede4de;fill-opacity:1"
         id="circle105" />
    </g>
    <line
       x1="26.06954"
       y1="141.74367"
       x2="43.16953"
       y2="141.74367"
       fill="none"
       stroke="#1f1f1f"
       stroke-linecap="round"
       stroke-linejoin="round"
       stroke-width="0.8"
       id="line109" />
    <line
       x1="77.14067"
       y1="141.74367"
       x2="84.64297"
       y2="141.74367"
       fill="none"
       stroke="#1f1f1f"
       stroke-linecap="round"
       stroke-linejoin="round"
       stroke-width="0.8"
       id="line111" />
    <rect
       x="84.17799"
       y="127.24061"
       width="28.7163"
       height="28.7163"
       rx="2.83465"
       fill="#1f1f1f"
       id="rect113"
       style="fill:#552200" />
    <g
       id="g121"
       style="fill:#ede4de;fill-opacity:1">
      <line
         x1="60.09361"
         y1="129.22023"
         x2="60.09361"
         y2="125.49696"
         fill="none"
         stroke="#1f1f1f"
         stroke-linecap="round"
         stroke-linejoin="round"
         stroke-width="0.8"
         id="line115"
         style="fill:#ede4de;fill-opacity:1" />
      <path
         d="M68.72922,156.04885a16.71231,16.71231,0,1,0-17.21552.04577"
         fill="none"
         stroke="#1f1f1f"
         stroke-linecap="round"
         stroke-linejoin="round"
         stroke-width="0.8"
         id="path117"
         style="fill:#ede4de;fill-opacity:1" />
      <circle
         cx="60.09359"
         cy="141.74367"
         r="20.69419"
         fill="none"
         opacity="0.69"
         style="isolation:isolate;fill:#ede4de;fill-opacity:1"
         id="circle119" />
    </g>
    <line
       x1="26.06954"
       y1="103.2924"
       x2="43.16953"
       y2="103.2924"
       fill="none"
       stroke="#1f1f1f"
       stroke-linecap="round"
       stroke-linejoin="round"
       stroke-width="0.8"
       id="line123" />
    <line
       x1="77.14067"
       y1="103.2924"
       x2="84.64297"
       y2="103.2924"
       fill="none"
       stroke="#1f1f1f"
       stroke-linecap="round"
       stroke-linejoin="round"
       stroke-width="0.8"
       id="line125" />
    <rect
       x="84.17799"
       y="88.78934"
       width="28.7163"
       height="28.7163"
       rx="2.83465"
       fill="#1f1f1f"
       id="rect127"
       style="fill:#552200" />
    <g
       id="g135"
       style="fill:#ede4de;fill-opacity:1">
      <line
         x1="60.09361"
         y1="90.76896"
         x2="60.09361"
         y2="87.04569"
         fill="none"
         stroke="#1f1f1f"
         stroke-linecap="round"
         stroke-linejoin="round"
         stroke-width="0.8"
         id="line129"
         style="fill:#ede4de;fill-opacity:1" />
      <path
         d="M68.72922,117.59758a16.71231,16.71231,0,1,0-17.21552.04577"
         fill="none"
         stroke="#1f1f1f"
         stroke-linecap="round"
         stroke-linejoin="round"
         stroke-width="0.8"
         id="path131"
         style="fill:#ede4de;fill-opacity:1" />
      <circle
         cx="60.09359"
         cy="103.2924"
         r="20.69419"
         fill="none"
         opacity="0.69"
         style="isolation:isolate;fill:#ede4de;fill-opacity:1"
         id="circle133" />
    </g>
    <text
       xml:space="preserve"
       id="text504"
       style="white-space:pre;shape-inside:url(#rect506);display:inline;fill:#000000" />
    <text
       xml:space="preserve"
       style="fill:#000000"
       x="36.58046"
       y="25.660919"
       id="text512"><tspan
         sodipodi:role="line"
         id="tspan510"
         x="36.58046"
         y="25.660919" /></text>
  </g>
  <g
     id="b0fe4617-c40c-4654-852b-870e05c106b0"
     data-name="components"
     inkscape:groupmode="layer"
     style="display:none">
    <circle
       id="b28b29b9-2163-47d8-9c26-57ecb02e4b7d"
       data-name="Out1#PJ301MPort"
       cx="98.536102"
       cy="64.865196"
       r="5"
       style="fill:#0000ff" />
    <circle
       id="b6041dbf-bba7-4553-b222-2a3cc5a293bc"
       data-name="Out8#PJ301MPort"
       cx="98.536102"
       cy="334"
       r="5"
       style="fill:#0000ff" />
    <circle
       id="bc0f64eb-61b0-4169-a4a3-714902c51c23"
       data-name="In1#PJ301MPort"
       cx="21.645691"
       cy="64.865196"
       r="5"
       style="fill:#00ff00" />
    <circle
       id="e671c58f-29a0-4642-a55c-3e465cc7d3e9"
       data-name="In8#PJ301MPort"
       cx="21.645691"
       cy="334"
       r="5"
       style="fill:#00ff00" />
    <circle
       id="f6cff63f-a24f-4756-904f-9bbc71fd2d51"
       data-name="Out7#PJ301MPort"
       cx="98.536102"
       cy="295.54874"
       r="5"
       style="fill:#0000ff" />
    <circle
       id="b24ce0c2-3772-4416-9cc9-49f0c2a1423d"
       data-name="In7#PJ301MPort"
       cx="21.645691"
       cy="295.54874"
       r="5"
       style="fill:#00ff00" />
    <circle
       id="b5ba0b2f-a811-46e8-b2a7-322005fe6a93"
       data-name="Out6#PJ301MPort"
       cx="98.536102"
       cy="257.09747"
       r="5"
       style="fill:#0000ff" />
    <circle
       id="a572312a-02c5-4500-b58c-04f4835a8cda"
       data-name="In6#PJ301MPort"
       cx="21.645691"
       cy="257.09747"
       r="5"
       style="fill:#00ff00" />
    <circle
       id="eaf325fd-e693-451c-b989-cb0fe3c56a6c"
       data-name="Out5#PJ301MPort"
       cx="98.536102"
       cy="218.64619"
       r="5"
       style="fill:#0000ff" />
    <circle
       id="aeab0bbb-1caa-4a6b-88b0-6575c2ca069e"
       data-name="In5#PJ301MPort"
       cx="21.645691"
       cy="218.64619"
       r="5"
       style="fill:#00ff00" />
    <circle
       id="fe93ace2-fb89-44a9-bf09-f457beaab2d7"
       data-name="Out4#PJ301MPort"
       cx="98.536102"
       cy="180.19495"
       r="5"
       style="fill:#0000ff" />
    <circle
       id="ae7263f9-8451-4667-896e-6b1c29482453"
       data-name="In4#PJ301MPort"
       cx="21.645691"
       cy="180.19495"
       r="5"
       style="fill:#00ff00" />
    <circle
       id="a8708828-11f1-4ead-951d-6af0c31fbb34"
       data-name="Out3#PJ301MPort"
       cx="98.536102"
       cy="141.74367"
       r="5"
       style="fill:#0000ff" />
    <circle
       id="aca34fbd-187b-4a95-b827-5c89d19b0e1d"
       data-name="In3#PJ301MPort"
       cx="21.645691"
       cy="141.74367"
       r="5"
       style="fill:#00ff00" />
    <circle
       id="fa0c6785-3cb2-4dfc-aca8-cd811771ad10"
       data-name="Out2#PJ301MPort"
       cx="98.536102"
       cy="103.2924"
       r="5"
       style="fill:#0000ff" />
    <circle
       id="f73fc078-808c-4deb-8594-05567c8860d6"
       data-name="In2#PJ301MPort"
       cx="21.645691"
       cy="103.2924"
       r="5"
       style="fill:#00ff00" />
    <circle
       id="b986b2e6-06eb-4c5f-936b-23792ff112b9"
       data-name="CV1#RoundBlackKnob"
       cx="60.09201"
       cy="64.865196"
       r="5"
       style="fill:#ff0000" />
    <circle
       id="adf135b3-392d-499a-b399-1f924b873db5"
       data-name="CV8#RoundBlackKnob"
       cx="60.09201"
       cy="334"
       r="5"
       style="fill:#ff0000" />
    <circle
       id="bec187f1-b9d4-456b-a59d-25bc4dd7ef7c"
       data-name="CV7#RoundBlackKnob"
       cx="60.09201"
       cy="295.54874"
       r="5"
       style="fill:#ff0000" />
    <circle
       id="f0cbe43e-20f7-4fb0-a0c3-5259b799b033"
       data-name="CV6#RoundBlackKnob"
       cx="60.09201"
       cy="257.09747"
       r="5"
       style="fill:#ff0000" />
    <circle
       id="ae9bddea-d824-44ed-8826-940b12a775a7"
       data-name="CV5#RoundBlackKnob"
       cx="60.09201"
       cy="218.64619"
       r="5"
       style="fill:#ff0000" />
    <circle
       id="ec4f3148-facb-41a4-bf69-80559a1edbd2"
       data-name="CV4#RoundBlackKnob"
       cx="60.09201"
       cy="180.19495"
       r="5"
       style="fill:#ff0000" />
    <circle
       id="be923ec7-0103-4449-8dd4-8fa2695b1d53"
       data-name="CV3#RoundBlackKnob"
       cx="60.09201"
       cy="141.74367"
       r="5"
       style="fill:#ff0000" />
    <circle
       id="bf093ceb-38c9-414d-89ba-6145f5b63ebf"
       data-name="CV2#RoundBlackKnob"
       cx="60.09201"
       cy="103.2924"
       r="5"
       style="fill:#ff0000" />
  </g>
  <g
     aria-label="macrow"
     id="text314"
     style="font-size:17.3333px;font-family:Menlo;-inkscape-font-specification:'Menlo, Normal';fill:#2b1100"
     transform="translate(-20.5,-3.5)">
    <path
       d="m 49.009109,26.172543 h 0.490885 v 1.794268 q 0.330077,-0.355469 0.74479,-0.677082 0.414713,-0.330078 0.854816,-0.57552 0.440103,-0.253906 0.880207,-0.397786 0.440103,-0.14388 0.837889,-0.14388 0.380858,0 0.77018,0.135417 0.397786,0.135416 0.727864,0.380858 0.338541,0.245442 0.575519,0.583983 0.245442,0.330078 0.321614,0.727864 0.211588,-0.380859 0.583983,-0.710936 0.380859,-0.338541 0.837889,-0.583984 0.457031,-0.245442 0.964842,-0.389322 0.516275,-0.14388 1.00716,-0.14388 0.490884,0 0.914061,0.220052 0.431639,0.211588 0.753253,0.583983 0.321614,0.363932 0.507812,0.86328 0.186197,0.490884 0.186197,1.049477 V 35 h -1.718095 v -5.873686 q 0,-0.363932 -0.126953,-0.685546 -0.11849,-0.330078 -0.330078,-0.57552 -0.211588,-0.245442 -0.499348,-0.389322 -0.279296,-0.14388 -0.592446,-0.14388 -0.355468,0 -0.727864,0.101562 -0.363931,0.0931 -0.694009,0.26237 -0.330077,0.16927 -0.60091,0.397785 -0.270833,0.220052 -0.43164,0.473958 V 35 h -1.718095 v -5.873686 q 0,-0.363932 -0.126953,-0.685546 -0.126953,-0.330078 -0.338541,-0.57552 -0.211588,-0.245442 -0.499348,-0.389322 -0.28776,-0.14388 -0.60091,-0.14388 -0.330078,0 -0.685546,0.101562 -0.347005,0.101563 -0.685546,0.270833 -0.330077,0.169271 -0.617837,0.397786 -0.28776,0.220052 -0.473957,0.465494 V 35 h -1.726559 v -8.345036 z"
       style="font-family:'Myanmar MN';-inkscape-font-specification:'Myanmar MN, Normal'"
       id="path791" />
    <path
       d="m 69.406205,35 q -0.338541,-0.169271 -0.57552,-0.473957 -0.228515,-0.313151 -0.228515,-0.710937 -0.304687,0.228516 -0.60091,0.473958 -0.28776,0.245442 -0.634765,0.448567 -0.338541,0.194661 -0.761717,0.321614 -0.414713,0.126953 -0.964842,0.126953 -0.507811,0 -0.922524,-0.169271 -0.406249,-0.160807 -0.694009,-0.448567 -0.279297,-0.28776 -0.440104,-0.685545 -0.152343,-0.397786 -0.152343,-0.854816 0,-0.558593 0.220052,-1.00716 0.220051,-0.448567 0.60091,-0.795571 0.389322,-0.355468 0.897134,-0.626301 0.507811,-0.279296 1.083331,-0.490885 0.57552,-0.220051 1.184893,-0.389322 0.609374,-0.16927 1.184894,-0.31315 v -0.541666 q 0,-0.592447 -0.08464,-0.998696 -0.08464,-0.406249 -0.26237,-0.651691 -0.177734,-0.253906 -0.45703,-0.355468 -0.270833,-0.110026 -0.651691,-0.110026 -0.363932,0 -0.668619,0.14388 -0.304687,0.14388 -0.541666,0.389322 -0.228515,0.236979 -0.380858,0.567056 -0.14388,0.321614 -0.194661,0.685546 h -1.574216 q 0.06771,-0.558593 0.380859,-0.998696 0.321614,-0.440104 0.804035,-0.736327 0.48242,-0.304687 1.091794,-0.465494 0.617838,-0.160807 1.277993,-0.160807 0.846352,0 1.421872,0.169271 0.57552,0.160807 0.922524,0.45703 0.347005,0.296223 0.490885,0.727863 0.152343,0.423176 0.152343,0.939452 v 5.348947 q 0,0.397786 0.228515,0.710937 Q 70.794223,34.830729 71.132764,35 Z M 68.60217,29.955739 q -0.372395,0.118489 -0.770181,0.270833 -0.397786,0.152343 -0.778644,0.347004 -0.380859,0.186198 -0.727863,0.40625 -0.347005,0.220051 -0.609374,0.473957 -0.26237,0.253906 -0.414713,0.533202 -0.152343,0.279296 -0.152343,0.583983 0,0.321614 0.118489,0.609374 0.118489,0.279296 0.31315,0.499348 0.194661,0.211588 0.448567,0.338541 0.253906,0.118489 0.524739,0.118489 0.28776,0 0.550129,-0.07617 0.262369,-0.07617 0.507811,-0.203125 0.245443,-0.135416 0.490885,-0.304687 0.245442,-0.16927 0.499348,-0.363931 z"
       style="font-family:'Myanmar MN';-inkscape-font-specification:'Myanmar MN, Normal'"
       id="path793" />
    <path
       d="m 78.800718,28.770845 q -0.0931,-0.338541 -0.253906,-0.685545 -0.160807,-0.347005 -0.414713,-0.626301 -0.245442,-0.28776 -0.583983,-0.465494 -0.338541,-0.177734 -0.795571,-0.177734 -0.583984,0 -1.049478,0.236979 -0.465493,0.236979 -0.787107,0.643228 -0.321614,0.406249 -0.490885,0.947915 -0.16927,0.541665 -0.16927,1.151039 0,0.829425 0.211588,1.574216 0.220051,0.736326 0.609374,1.294919 0.397785,0.558593 0.947914,0.88867 0.558593,0.321614 1.244139,0.321614 0.60091,0 1.041013,-0.186197 0.448567,-0.194661 0.770181,-0.516275 0.330077,-0.321614 0.567056,-0.744791 0.236979,-0.431639 0.423176,-0.905597 l 0.516275,0.211588 q -0.220051,0.812499 -0.592446,1.455727 -0.372395,0.643228 -0.880207,1.091794 -0.499348,0.440104 -1.134112,0.677082 -0.626301,0.228516 -1.362628,0.228516 -0.854816,0 -1.599606,-0.330078 -0.74479,-0.338541 -1.294919,-0.922524 -0.55013,-0.583983 -0.871744,-1.362628 -0.321614,-0.778644 -0.321614,-1.667314 0,-0.651692 0.160807,-1.252602 0.160807,-0.609374 0.448567,-1.134112 0.296224,-0.524739 0.702473,-0.956379 0.414713,-0.431639 0.914061,-0.736326 0.499348,-0.313151 1.066404,-0.482421 0.575519,-0.169271 1.193357,-0.169271 0.516275,0 0.990232,0.11849 0.473958,0.118489 0.871743,0.338541 0.397786,0.211588 0.702473,0.533202 0.304687,0.31315 0.473957,0.702472 z"
       style="font-family:'Myanmar MN';-inkscape-font-specification:'Myanmar MN, Normal'"
       id="path795" />
    <path
       d="m 84.251226,26.172543 h 0.262369 l 0.228515,1.768877 q 0.203125,-0.389322 0.507812,-0.710936 0.304686,-0.321614 0.668618,-0.558593 0.372395,-0.236979 0.778644,-0.363931 0.414713,-0.135417 0.837889,-0.135417 0.380859,0 0.744791,0.101563 0.372395,0.101562 0.694009,0.321613 l -0.541666,1.447263 q -0.169271,-0.186197 -0.355468,-0.296223 -0.186198,-0.118489 -0.380859,-0.177734 -0.194661,-0.06771 -0.397785,-0.08463 -0.203125,-0.01693 -0.40625,-0.01693 -0.321614,0 -0.634764,0.0931 -0.304687,0.0931 -0.583983,0.279297 -0.279297,0.177734 -0.516275,0.465494 -0.236979,0.279296 -0.414713,0.660155 V 35 h -1.718096 v -8.353499 z"
       style="font-family:'Myanmar MN';-inkscape-font-specification:'Myanmar MN, Normal'"
       id="path797" />
    <path
       d="m 94.509021,35.186198 q -0.998696,0 -1.836585,-0.347005 -0.837889,-0.347005 -1.447263,-0.939451 -0.609373,-0.600911 -0.956378,-1.396482 -0.338541,-0.804035 -0.338541,-1.718096 0,-0.956378 0.338541,-1.794267 0.347005,-0.846352 0.956378,-1.472653 0.609374,-0.626301 1.447263,-0.981769 0.837889,-0.363932 1.836585,-0.363932 0.990233,0 1.819658,0.330078 0.837889,0.330077 1.447263,0.905597 0.609374,0.57552 0.947915,1.354164 0.347004,0.770181 0.347004,1.658851 0,0.981769 -0.347004,1.853512 -0.338541,0.863279 -0.947915,1.514971 -0.609374,0.643228 -1.447263,1.024086 -0.829425,0.372396 -1.819658,0.372396 z m 0.330078,-0.634765 q 0.507811,0 0.930987,-0.262369 0.423177,-0.262369 0.727864,-0.702473 0.304687,-0.448567 0.473957,-1.03255 0.169271,-0.583983 0.169271,-1.235674 0,-0.939452 -0.160807,-1.760414 -0.160807,-0.820962 -0.524739,-1.430335 -0.363932,-0.609374 -0.947915,-0.956379 -0.583983,-0.355468 -1.421872,-0.355468 -0.43164,0 -0.837889,0.253906 -0.406249,0.245442 -0.7194,0.677082 -0.304687,0.43164 -0.490884,1.015623 -0.186198,0.57552 -0.186198,1.227211 0,0.947915 0.194661,1.77734 0.203125,0.829426 0.583984,1.447263 0.389322,0.617838 0.939451,0.981769 0.558593,0.355468 1.269529,0.355468 z"
       style="font-family:'Myanmar MN';-inkscape-font-specification:'Myanmar MN, Normal'"
       id="path799" />
    <path
       d="m 101.96539,26.33335 2.74218,6.330717 2.71679,-6.330717 2.73372,6.330717 2.42057,-6.330717 h 0.82942 l -3.53775,8.759749 h -0.58398 l -2.42057,-5.662099 -2.42903,5.662099 h -0.53321 l -3.79166,-8.759749 z"
       style="font-family:'Myanmar MN';-inkscape-font-specification:'Myanmar MN, Normal'"
       id="path801" />
  </g>
  <path
     style="fill:#e3dbdb"
     id="path580"
     sodipodi:type="arc"
     sodipodi:cx="58.25"
     sodipodi:cy="344.125"
     sodipodi:rx="30"
     sodipodi:ry="35.625"
     sodipodi:start="0"
     sodipodi:end="0.004296429"
     sodipodi:arc-type="slice"
     d="m 88.25,344.125 a 30,35.625 0 0 1 -2.77e-4,0.15306 L 58.25,344.125 Z" />
  <rect
     style="fill:#e3dedb;fill-opacity:1;stroke-width:0.944664"
     id="rect692"
     width="120.01562"
     height="87.046875"
     x="-0.015624999"
     y="292.98438" />
</svg>
