<?xml version="1.0" encoding="UTF-8" standalone="no"?>
<svg
   width="120"
   height="380"
   viewBox="0 0 120 380"
   version="1.1"
   id="svg214"
   sodipodi:docname="macrow.svg"
   inkscape:version="1.2.2 (b0a84865, 2022-12-01)"
   xmlns:inkscape="http://www.inkscape.org/namespaces/inkscape"
   xmlns:sodipodi="http://sodipodi.sourceforge.net/DTD/sodipodi-0.dtd"
   xmlns="http://www.w3.org/2000/svg"
   xmlns:svg="http://www.w3.org/2000/svg"
   xmlns:rdf="http://www.w3.org/1999/02/22-rdf-syntax-ns#"
   xmlns:cc="http://creativecommons.org/ns#"
   xmlns:dc="http://purl.org/dc/elements/1.1/">
  <metadata
     id="metadata218">
    <rdf:RDF>
      <cc:Work
         rdf:about="">
        <dc:format>image/svg+xml</dc:format>
        <dc:type
           rdf:resource="http://purl.org/dc/dcmitype/StillImage" />
      </cc:Work>
    </rdf:RDF>
  </metadata>
  <sodipodi:namedview
     pagecolor="#ffffff"
     bordercolor="#666666"
     borderopacity="1"
     objecttolerance="10"
     gridtolerance="10"
     guidetolerance="10"
     inkscape:pageopacity="0"
     inkscape:pageshadow="2"
     inkscape:window-width="1512"
     inkscape:window-height="916"
     id="namedview216"
     showgrid="false"
     inkscape:zoom="1.8315789"
     inkscape:cx="-25.387931"
     inkscape:cy="146.32184"
     inkscape:window-x="1"
     inkscape:window-y="38"
     inkscape:window-maximized="0"
     inkscape:current-layer="b25b4576-f16e-45a7-b274-7378c421459d"
     inkscape:showpageshadow="2"
     inkscape:pagecheckerboard="0"
     inkscape:deskcolor="#d1d1d1" />
  <defs
     id="defs10">
    <rect
       x="18.563218"
       y="8.1896552"
       width="84.08046"
       height="25.114943"
       id="rect506" />
    <linearGradient
       id="a6287d73-2e3d-4133-aa81-491f0595359d"
       x1="60"
       x2="60"
       y2="380"
       gradientUnits="userSpaceOnUse">
      <stop
         offset="0"
         stop-color="#ebebeb"
         id="stop2" />
      <stop
         offset="1"
         stop-color="#e1e1e1"
         id="stop4" />
    </linearGradient>
  </defs>
  <g
     id="ac161694-2666-4a45-9d4c-73056424c028"
     data-name="FND BG">
    <rect
       width="120"
       height="380"
       fill="url(#a6287d73-2e3d-4133-aa81-491f0595359d)"
       id="rect12" />
  </g>
  <g
     id="b25b4576-f16e-45a7-b274-7378c421459d"
     data-name="FND GRAPH">
    <g
       aria-label="macrow"
       id="text566"
       style="font-size:17.3333px;font-family:Menlo;-inkscape-font-specification:'Menlo, Normal'">
      <path
         d="m 35.204103,18.784545 q 0.287759,-0.609374 0.727863,-0.897134 0.448567,-0.296223 1.074867,-0.296223 1.142576,0 1.60807,0.88867 0.473958,0.880206 0.473958,3.326165 v 5.492828 h -1.421873 v -5.42512 q 0,-2.005855 -0.228515,-2.488276 -0.220051,-0.490885 -0.812498,-0.490885 -0.677082,0 -0.930988,0.524739 -0.245442,0.516275 -0.245442,2.454422 v 5.42512 h -1.421872 v -5.42512 q 0,-2.031246 -0.245443,-2.505203 -0.236978,-0.473958 -0.863279,-0.473958 -0.617838,0 -0.86328,0.524739 -0.236979,0.516275 -0.236979,2.454422 v 5.42512 h -1.413408 v -9.479148 h 1.413408 v 0.812498 q 0.279297,-0.507811 0.69401,-0.770181 0.423176,-0.270832 0.956378,-0.270832 0.643228,0 1.066404,0.296223 0.43164,0.296223 0.668619,0.897134 z"
         id="path664" />
      <path
         d="m 45.859681,22.533886 h -0.516275 q -1.362628,0 -2.056637,0.482421 -0.685545,0.473958 -0.685545,1.421872 0,0.854817 0.516275,1.328774 0.516275,0.473957 1.430336,0.473957 1.286455,0 2.022782,-0.88867 0.736327,-0.897133 0.74479,-2.471349 v -0.347005 z m 3.021479,-0.643228 v 5.408193 h -1.565753 v -1.404945 q -0.499348,0.846352 -1.261065,1.252602 -0.753254,0.397785 -1.836585,0.397785 -1.447263,0 -2.310542,-0.812498 -0.86328,-0.820962 -0.86328,-2.192053 0,-1.582679 1.057941,-2.403641 1.066404,-0.820962 3.123041,-0.820962 h 2.09049 v -0.245443 q -0.0085,-1.134112 -0.575519,-1.641923 -0.567057,-0.516275 -1.811195,-0.516275 -0.795571,0 -1.60807,0.228515 -0.812498,0.228515 -1.582679,0.668618 v -1.557288 q 0.86328,-0.330078 1.650388,-0.490885 0.795571,-0.16927 1.540361,-0.16927 1.17643,0 2.005856,0.347004 0.837889,0.347005 1.354164,1.041014 0.321614,0.423176 0.45703,1.049477 0.135417,0.617837 0.135417,1.861975 z"
         id="path666" />
      <path
         d="m 59.333613,26.81643 q -0.6263,0.363932 -1.294919,0.541666 -0.660155,0.186197 -1.354164,0.186197 -2.200517,0 -3.444655,-1.32031 -1.235674,-1.32031 -1.235674,-3.656243 0,-2.335933 1.235674,-3.656242 1.244138,-1.32031 3.444655,-1.32031 0.685546,0 1.337237,0.177734 0.651691,0.177734 1.311846,0.550129 v 1.63346 q -0.617837,-0.550129 -1.244138,-0.795571 -0.617837,-0.245442 -1.404945,-0.245442 -1.46419,0 -2.251298,0.947914 -0.787108,0.947915 -0.787108,2.708328 0,1.75195 0.787108,2.708328 0.795572,0.947915 2.251298,0.947915 0.812498,0 1.455726,-0.245442 0.643228,-0.253906 1.193357,-0.778644 z"
         id="path668" />
      <path
         d="m 70.564711,19.774777 q -0.499348,-0.389322 -1.015623,-0.567056 -0.516275,-0.177734 -1.134113,-0.177734 -1.455726,0 -2.225907,0.914061 -0.770181,0.91406 -0.770181,2.640619 v 4.714184 h -1.565752 v -9.479148 h 1.565752 v 1.853512 q 0.389323,-1.00716 1.193357,-1.540362 0.812499,-0.541665 1.921221,-0.541665 0.575519,0 1.074867,0.14388 0.499348,0.143879 0.956379,0.448566 z"
         id="path670" />
      <path
         d="m 76.438398,18.911498 q -1.184893,0 -1.794267,0.922524 -0.609374,0.922524 -0.609374,2.733718 0,1.802731 0.609374,2.733719 0.609374,0.922524 1.794267,0.922524 1.193357,0 1.802731,-0.922524 0.609374,-0.930988 0.609374,-2.733719 0,-1.811194 -0.609374,-2.733718 -0.609374,-0.922524 -1.802731,-0.922524 z m 0,-1.32031 q 1.972002,0 3.013015,1.277992 1.049478,1.277992 1.049478,3.69856 0,2.429032 -1.041014,3.707024 -1.041014,1.269529 -3.021479,1.269529 -1.972001,0 -3.013015,-1.269529 -1.041013,-1.277992 -1.041013,-3.707024 0,-2.420568 1.041013,-3.69856 1.041014,-1.277992 3.013015,-1.277992 z"
         id="path672" />
      <path
         d="m 81.660395,17.819703 h 1.540361 l 1.650388,7.65949 1.354164,-4.891917 h 1.328773 l 1.371091,4.891917 1.650388,-7.65949 h 1.540361 l -2.217443,9.479148 h -1.489581 l -1.514971,-5.196604 -1.506507,5.196604 h -1.489581 z"
         id="path674" />
    </g>
    <rect
       x="84.21482"
       y="40.00547"
       width="28.55155"
       height="39.15691"
       rx="2.83465"
       fill="#1f1f1f"
       id="rect29" />
    <line
       x1="30.85019"
       y1="64.8652"
       x2="43.16953"
       y2="64.8652"
       fill="none"
       stroke="#1f1f1f"
       stroke-linecap="round"
       stroke-linejoin="round"
       stroke-width="0.8"
       id="line33" />
    <line
       x1="77.14067"
       y1="64.8652"
       x2="84.64297"
       y2="64.8652"
       fill="none"
       stroke="#1f1f1f"
       stroke-linecap="round"
       stroke-linejoin="round"
       stroke-width="0.8"
       id="line35" />
    <g
       id="g43">
      <line
         x1="60.09361"
         y1="52.34175"
         x2="60.09361"
         y2="48.61849"
         fill="none"
         stroke="#1f1f1f"
         stroke-linecap="round"
         stroke-linejoin="round"
         stroke-width="0.8"
         id="line37" />
      <path
         d="M68.72922,79.17037a16.7123,16.7123,0,1,0-17.21552.04578"
         fill="none"
         stroke="#1f1f1f"
         stroke-linecap="round"
         stroke-linejoin="round"
         stroke-width="0.8"
         id="path39" />
      <circle
         cx="60.09359"
         cy="64.8652"
         r="20.69419"
         fill="none"
         opacity="0.69"
         style="isolation: isolate"
         id="circle41" />
    </g>
    <line
       x1="26.06954"
       y1="257.09747"
       x2="43.16953"
       y2="257.09747"
       fill="none"
       stroke="#1f1f1f"
       stroke-linecap="round"
       stroke-linejoin="round"
       stroke-width="0.8"
       id="line67" />
    <line
       x1="77.14067"
       y1="257.09747"
       x2="84.64297"
       y2="257.09747"
       fill="none"
       stroke="#1f1f1f"
       stroke-linecap="round"
       stroke-linejoin="round"
       stroke-width="0.8"
       id="line69" />
    <rect
       x="84.17799"
       y="242.59441"
       width="28.7163"
       height="28.7163"
       rx="2.83465"
       fill="#1f1f1f"
       id="rect71" />
    <g
       id="g79">
      <line
         x1="60.09361"
         y1="244.57402"
         x2="60.09361"
         y2="240.85076"
         fill="none"
         stroke="#1f1f1f"
         stroke-linecap="round"
         stroke-linejoin="round"
         stroke-width="0.8"
         id="line73" />
      <path
         d="M68.72922,271.40264a16.71231,16.71231,0,1,0-17.21552.04577"
         fill="none"
         stroke="#1f1f1f"
         stroke-linecap="round"
         stroke-linejoin="round"
         stroke-width="0.8"
         id="path75" />
      <circle
         cx="60.09359"
         cy="257.09747"
         r="20.69419"
         fill="none"
         opacity="0.69"
         style="isolation: isolate"
         id="circle77" />
    </g>
    <line
       x1="26.06954"
       y1="218.6462"
       x2="43.16953"
       y2="218.6462"
       fill="none"
       stroke="#1f1f1f"
       stroke-linecap="round"
       stroke-linejoin="round"
       stroke-width="0.8"
       id="line81" />
    <line
       x1="77.14067"
       y1="218.6462"
       x2="84.64297"
       y2="218.6462"
       fill="none"
       stroke="#1f1f1f"
       stroke-linecap="round"
       stroke-linejoin="round"
       stroke-width="0.8"
       id="line83" />
    <rect
       x="84.17799"
       y="204.14314"
       width="28.7163"
       height="28.7163"
       rx="2.83465"
       fill="#1f1f1f"
       id="rect85" />
    <g
       id="g93">
      <line
         x1="60.09361"
         y1="206.12276"
         x2="60.09361"
         y2="202.39949"
         fill="none"
         stroke="#1f1f1f"
         stroke-linecap="round"
         stroke-linejoin="round"
         stroke-width="0.8"
         id="line87" />
      <path
         d="M68.72922,232.95138a16.71231,16.71231,0,1,0-17.21552.04577"
         fill="none"
         stroke="#1f1f1f"
         stroke-linecap="round"
         stroke-linejoin="round"
         stroke-width="0.8"
         id="path89" />
      <circle
         cx="60.09359"
         cy="218.6462"
         r="20.69419"
         fill="none"
         opacity="0.69"
         style="isolation: isolate"
         id="circle91" />
    </g>
    <line
       x1="26.06954"
       y1="180.19494"
       x2="43.16953"
       y2="180.19494"
       fill="none"
       stroke="#1f1f1f"
       stroke-linecap="round"
       stroke-linejoin="round"
       stroke-width="0.8"
       id="line95" />
    <line
       x1="77.14067"
       y1="180.19494"
       x2="84.64297"
       y2="180.19494"
       fill="none"
       stroke="#1f1f1f"
       stroke-linecap="round"
       stroke-linejoin="round"
       stroke-width="0.8"
       id="line97" />
    <rect
       x="84.17799"
       y="165.69187"
       width="28.7163"
       height="28.7163"
       rx="2.83465"
       fill="#1f1f1f"
       id="rect99" />
    <g
       id="g107">
      <line
         x1="60.09361"
         y1="167.67149"
         x2="60.09361"
         y2="163.94822"
         fill="none"
         stroke="#1f1f1f"
         stroke-linecap="round"
         stroke-linejoin="round"
         stroke-width="0.8"
         id="line101" />
      <path
         d="M68.72922,194.50011a16.71231,16.71231,0,1,0-17.21552.04577"
         fill="none"
         stroke="#1f1f1f"
         stroke-linecap="round"
         stroke-linejoin="round"
         stroke-width="0.8"
         id="path103" />
      <circle
         cx="60.09359"
         cy="180.19494"
         r="20.69419"
         fill="none"
         opacity="0.69"
         style="isolation: isolate"
         id="circle105" />
    </g>
    <line
       x1="26.06954"
       y1="141.74367"
       x2="43.16953"
       y2="141.74367"
       fill="none"
       stroke="#1f1f1f"
       stroke-linecap="round"
       stroke-linejoin="round"
       stroke-width="0.8"
       id="line109" />
    <line
       x1="77.14067"
       y1="141.74367"
       x2="84.64297"
       y2="141.74367"
       fill="none"
       stroke="#1f1f1f"
       stroke-linecap="round"
       stroke-linejoin="round"
       stroke-width="0.8"
       id="line111" />
    <rect
       x="84.17799"
       y="127.24061"
       width="28.7163"
       height="28.7163"
       rx="2.83465"
       fill="#1f1f1f"
       id="rect113" />
    <g
       id="g121">
      <line
         x1="60.09361"
         y1="129.22023"
         x2="60.09361"
         y2="125.49696"
         fill="none"
         stroke="#1f1f1f"
         stroke-linecap="round"
         stroke-linejoin="round"
         stroke-width="0.8"
         id="line115" />
      <path
         d="M68.72922,156.04885a16.71231,16.71231,0,1,0-17.21552.04577"
         fill="none"
         stroke="#1f1f1f"
         stroke-linecap="round"
         stroke-linejoin="round"
         stroke-width="0.8"
         id="path117" />
      <circle
         cx="60.09359"
         cy="141.74367"
         r="20.69419"
         fill="none"
         opacity="0.69"
         style="isolation: isolate"
         id="circle119" />
    </g>
    <line
       x1="26.06954"
       y1="103.2924"
       x2="43.16953"
       y2="103.2924"
       fill="none"
       stroke="#1f1f1f"
       stroke-linecap="round"
       stroke-linejoin="round"
       stroke-width="0.8"
       id="line123" />
    <line
       x1="77.14067"
       y1="103.2924"
       x2="84.64297"
       y2="103.2924"
       fill="none"
       stroke="#1f1f1f"
       stroke-linecap="round"
       stroke-linejoin="round"
       stroke-width="0.8"
       id="line125" />
    <rect
       x="84.17799"
       y="88.78934"
       width="28.7163"
       height="28.7163"
       rx="2.83465"
       fill="#1f1f1f"
       id="rect127" />
    <g
       id="g135">
      <line
         x1="60.09361"
         y1="90.76896"
         x2="60.09361"
         y2="87.04569"
         fill="none"
         stroke="#1f1f1f"
         stroke-linecap="round"
         stroke-linejoin="round"
         stroke-width="0.8"
         id="line129" />
      <path
         d="M68.72922,117.59758a16.71231,16.71231,0,1,0-17.21552.04577"
         fill="none"
         stroke="#1f1f1f"
         stroke-linecap="round"
         stroke-linejoin="round"
         stroke-width="0.8"
         id="path131" />
      <circle
         cx="60.09359"
         cy="103.2924"
         r="20.69419"
         fill="none"
         opacity="0.69"
         style="isolation: isolate"
         id="circle133" />
    </g>
    <g
       id="use137"
       transform="translate(19.61532,46.16721)">
      <path
         id="path4877"
         d="M 2.35242,3.42947 4.01038,0.55779 A 0.37186,0.37186 0 0 0 3.68834,0 H 0.37242 a 0.37186,0.37186 0 0 0 -0.322,0.55779 l 1.658,2.87168 a 0.37187,0.37187 0 0 0 0.644,0 z"
         inkscape:connector-curvature="0"
         style="fill:#1f1f1f" />
    </g>
    <g
       id="use145"
       transform="translate(19.61529,236.06414)">
      <path
         id="path4889"
         d="M 2.35242,3.42947 4.01038,0.55779 A 0.37186,0.37186 0 0 0 3.68834,0 H 0.37242 a 0.37186,0.37186 0 0 0 -0.322,0.55779 l 1.658,2.87168 a 0.37187,0.37187 0 0 0 0.644,0 z"
         inkscape:connector-curvature="0"
         style="fill:#1f1f1f" />
    </g>
    <g
       id="use147"
       transform="translate(19.61529,197.61287)">
      <path
         id="path4893"
         d="M 2.35242,3.42947 4.01038,0.55779 A 0.37186,0.37186 0 0 0 3.68834,0 H 0.37242 a 0.37186,0.37186 0 0 0 -0.322,0.55779 l 1.658,2.87168 a 0.37187,0.37187 0 0 0 0.644,0 z"
         inkscape:connector-curvature="0"
         style="fill:#1f1f1f" />
    </g>
    <g
       id="use149"
       transform="translate(19.61529,159.16161)">
      <path
         id="path4897"
         d="M 2.35242,3.42947 4.01038,0.55779 A 0.37186,0.37186 0 0 0 3.68834,0 H 0.37242 a 0.37186,0.37186 0 0 0 -0.322,0.55779 l 1.658,2.87168 a 0.37187,0.37187 0 0 0 0.644,0 z"
         inkscape:connector-curvature="0"
         style="fill:#1f1f1f" />
    </g>
    <g
       id="use151"
       transform="translate(19.61529,120.71034)">
      <path
         id="path4901"
         d="M 2.35242,3.42947 4.01038,0.55779 A 0.37186,0.37186 0 0 0 3.68834,0 H 0.37242 a 0.37186,0.37186 0 0 0 -0.322,0.55779 l 1.658,2.87168 a 0.37187,0.37187 0 0 0 0.644,0 z"
         inkscape:connector-curvature="0"
         style="fill:#1f1f1f" />
    </g>
    <g
       id="use153"
       transform="translate(19.61529,82.25907)">
      <path
         id="path4905"
         d="M 2.35242,3.42947 4.01038,0.55779 A 0.37186,0.37186 0 0 0 3.68834,0 H 0.37242 a 0.37186,0.37186 0 0 0 -0.322,0.55779 l 1.658,2.87168 a 0.37187,0.37187 0 0 0 0.644,0 z"
         inkscape:connector-curvature="0"
         style="fill:#1f1f1f" />
    </g>
    <text
       xml:space="preserve"
       id="text504"
       style="white-space:pre;shape-inside:url(#rect506);display:inline;fill:#000000" />
    <text
       xml:space="preserve"
       style="fill:#000000"
       x="36.58046"
       y="25.660919"
       id="text512"><tspan
         sodipodi:role="line"
         id="tspan510"
         x="36.58046"
         y="25.660919" /></text>
  </g>
  <g
     id="b0fe4617-c40c-4654-852b-870e05c106b0"
     data-name="components"
     inkscape:groupmode="layer"
     style="display:none">
    <circle
       id="b28b29b9-2163-47d8-9c26-57ecb02e4b7d"
       data-name="Out1#PJ301MPort"
       cx="98.536102"
       cy="64.865196"
       r="5"
       style="fill:#0000ff" />
    <circle
       id="b6041dbf-bba7-4553-b222-2a3cc5a293bc"
       data-name="Out8#PJ301MPort"
       cx="98.536102"
       cy="334"
       r="5"
       style="fill:#0000ff" />
    <circle
       id="bc0f64eb-61b0-4169-a4a3-714902c51c23"
       data-name="In1#PJ301MPort"
       cx="21.645691"
       cy="64.865196"
       r="5"
       style="fill:#00ff00" />
    <circle
       id="e671c58f-29a0-4642-a55c-3e465cc7d3e9"
       data-name="In8#PJ301MPort"
       cx="21.645691"
       cy="334"
       r="5"
       style="fill:#00ff00" />
    <circle
       id="f6cff63f-a24f-4756-904f-9bbc71fd2d51"
       data-name="Out7#PJ301MPort"
       cx="98.536102"
       cy="295.54874"
       r="5"
       style="fill:#0000ff" />
    <circle
       id="b24ce0c2-3772-4416-9cc9-49f0c2a1423d"
       data-name="In7#PJ301MPort"
       cx="21.645691"
       cy="295.54874"
       r="5"
       style="fill:#00ff00" />
    <circle
       id="b5ba0b2f-a811-46e8-b2a7-322005fe6a93"
       data-name="Out6#PJ301MPort"
       cx="98.536102"
       cy="257.09747"
       r="5"
       style="fill:#0000ff" />
    <circle
       id="a572312a-02c5-4500-b58c-04f4835a8cda"
       data-name="In6#PJ301MPort"
       cx="21.645691"
       cy="257.09747"
       r="5"
       style="fill:#00ff00" />
    <circle
       id="eaf325fd-e693-451c-b989-cb0fe3c56a6c"
       data-name="Out5#PJ301MPort"
       cx="98.536102"
       cy="218.64619"
       r="5"
       style="fill:#0000ff" />
    <circle
       id="aeab0bbb-1caa-4a6b-88b0-6575c2ca069e"
       data-name="In5#PJ301MPort"
       cx="21.645691"
       cy="218.64619"
       r="5"
       style="fill:#00ff00" />
    <circle
       id="fe93ace2-fb89-44a9-bf09-f457beaab2d7"
       data-name="Out4#PJ301MPort"
       cx="98.536102"
       cy="180.19495"
       r="5"
       style="fill:#0000ff" />
    <circle
       id="ae7263f9-8451-4667-896e-6b1c29482453"
       data-name="In4#PJ301MPort"
       cx="21.645691"
       cy="180.19495"
       r="5"
       style="fill:#00ff00" />
    <circle
       id="a8708828-11f1-4ead-951d-6af0c31fbb34"
       data-name="Out3#PJ301MPort"
       cx="98.536102"
       cy="141.74367"
       r="5"
       style="fill:#0000ff" />
    <circle
       id="aca34fbd-187b-4a95-b827-5c89d19b0e1d"
       data-name="In3#PJ301MPort"
       cx="21.645691"
       cy="141.74367"
       r="5"
       style="fill:#00ff00" />
    <circle
       id="fa0c6785-3cb2-4dfc-aca8-cd811771ad10"
       data-name="Out2#PJ301MPort"
       cx="98.536102"
       cy="103.2924"
       r="5"
       style="fill:#0000ff" />
    <circle
       id="f73fc078-808c-4deb-8594-05567c8860d6"
       data-name="In2#PJ301MPort"
       cx="21.645691"
       cy="103.2924"
       r="5"
       style="fill:#00ff00" />
    <circle
       id="b986b2e6-06eb-4c5f-936b-23792ff112b9"
       data-name="CV1#RoundBlackKnob"
       cx="60.09201"
       cy="64.865196"
       r="5"
       style="fill:#ff0000" />
    <circle
       id="adf135b3-392d-499a-b399-1f924b873db5"
       data-name="CV8#RoundBlackKnob"
       cx="60.09201"
       cy="334"
       r="5"
       style="fill:#ff0000" />
    <circle
       id="bec187f1-b9d4-456b-a59d-25bc4dd7ef7c"
       data-name="CV7#RoundBlackKnob"
       cx="60.09201"
       cy="295.54874"
       r="5"
       style="fill:#ff0000" />
    <circle
       id="f0cbe43e-20f7-4fb0-a0c3-5259b799b033"
       data-name="CV6#RoundBlackKnob"
       cx="60.09201"
       cy="257.09747"
       r="5"
       style="fill:#ff0000" />
    <circle
       id="ae9bddea-d824-44ed-8826-940b12a775a7"
       data-name="CV5#RoundBlackKnob"
       cx="60.09201"
       cy="218.64619"
       r="5"
       style="fill:#ff0000" />
    <circle
       id="ec4f3148-facb-41a4-bf69-80559a1edbd2"
       data-name="CV4#RoundBlackKnob"
       cx="60.09201"
       cy="180.19495"
       r="5"
       style="fill:#ff0000" />
    <circle
       id="be923ec7-0103-4449-8dd4-8fa2695b1d53"
       data-name="CV3#RoundBlackKnob"
       cx="60.09201"
       cy="141.74367"
       r="5"
       style="fill:#ff0000" />
    <circle
       id="bf093ceb-38c9-414d-89ba-6145f5b63ebf"
       data-name="CV2#RoundBlackKnob"
       cx="60.09201"
       cy="103.2924"
       r="5"
       style="fill:#ff0000" />
  </g>
</svg>
