<?xml version="1.0" encoding="UTF-8" standalone="no"?>
<svg
   width="45"
   height="380"
   viewBox="0 0 45 380"
   version="1.1"
   id="svg122"
   sodipodi:docname="rectify.svg"
   inkscape:version="1.2.2 (b0a84865, 2022-12-01)"
   xmlns:inkscape="http://www.inkscape.org/namespaces/inkscape"
   xmlns:sodipodi="http://sodipodi.sourceforge.net/DTD/sodipodi-0.dtd"
   xmlns="http://www.w3.org/2000/svg"
   xmlns:svg="http://www.w3.org/2000/svg"
   xmlns:rdf="http://www.w3.org/1999/02/22-rdf-syntax-ns#"
   xmlns:cc="http://creativecommons.org/ns#"
   xmlns:dc="http://purl.org/dc/elements/1.1/">
  <metadata
     id="metadata126">
    <rdf:RDF>
      <cc:Work
         rdf:about="">
        <dc:format>image/svg+xml</dc:format>
        <dc:type
           rdf:resource="http://purl.org/dc/dcmitype/StillImage" />
      </cc:Work>
    </rdf:RDF>
  </metadata>
  <sodipodi:namedview
     pagecolor="#ffffff"
     bordercolor="#666666"
     borderopacity="1"
     objecttolerance="10"
     gridtolerance="10"
     guidetolerance="10"
     inkscape:pageopacity="0"
     inkscape:pageshadow="2"
     inkscape:window-width="1512"
     inkscape:window-height="916"
     id="namedview124"
     showgrid="false"
     inkscape:zoom="4.546037"
     inkscape:cx="9.5687738"
     inkscape:cy="20.457378"
     inkscape:window-x="0"
     inkscape:window-y="38"
     inkscape:window-maximized="1"
     inkscape:current-layer="ee06e79d-875e-4193-8cc0-79b9564537b3"
     inkscape:showpageshadow="2"
     inkscape:pagecheckerboard="0"
     inkscape:deskcolor="#d1d1d1" />
  <defs
     id="defs7">
    <linearGradient
       id="b84b55f3-8714-404a-8132-87c6ad8384e3"
       x1="22.5"
       x2="22.5"
       y2="380"
       gradientUnits="userSpaceOnUse">
      <stop
         offset="0"
         stop-color="#ebebeb"
         id="stop2" />
      <stop
         offset="1"
         stop-color="#e1e1e1"
         id="stop4" />
    </linearGradient>
  </defs>
  <g
     id="ee06e79d-875e-4193-8cc0-79b9564537b3"
     data-name="FND BG">
    <rect
       width="45"
       height="380"
       fill="url(#b84b55f3-8714-404a-8132-87c6ad8384e3)"
       id="rect9"
       style="fill:#c8beb7" />
    <g
       aria-label="rectify"
       id="text406"
       style="font-size:17.3333px;font-family:Menlo;-inkscape-font-specification:'Menlo, Normal';fill:#c8beb7">
      <path
         d="M 5.7570579,19.469939 Q 5.5070571,19.240772 5.1685143,19.126188 4.8351799,19.011604 4.434137,19.011604 q -0.4843765,0 -0.848961,0.171876 -0.3593761,0.166667 -0.5572934,0.489585 -0.1250004,0.197917 -0.1770839,0.479168 -0.046875,0.281251 -0.046875,0.854169 v 2.687509 H 1.277877 v -5.833352 h 1.5260465 v 0.906253 q 0.2239591,-0.500002 0.6875022,-0.770836 0.4635431,-0.276043 1.0833368,-0.276043 0.3125009,0 0.6093769,0.07813 0.3020843,0.07292 0.5729185,0.21875 z"
         style="font-weight:bold;font-size:10.6667px;-inkscape-font-specification:'Menlo, Bold';fill:#000000"
         id="path616" />
      <path
         d="m 11.923744,23.407451 q -0.531251,0.218751 -1.083337,0.328126 -0.552085,0.109376 -1.1666699,0.109376 -1.4635463,0 -2.2395904,-0.781253 -0.7708358,-0.786461 -0.7708358,-2.260424 0,-1.427087 0.7447941,-2.255215 0.744794,-0.828128 2.0312564,-0.828128 1.2968786,0 2.0104226,0.770836 0.718753,0.765628 0.718753,2.161465 v 0.619794 H 8.2153992 q 0.00521,0.687502 0.4062513,1.026045 0.4010429,0.338543 1.1979204,0.338543 0.5260431,0 1.0364621,-0.151043 0.510418,-0.151042 1.067711,-0.479168 z m -1.291671,-3.28126 q -0.01042,-0.604169 -0.312501,-0.911461 -0.296875,-0.312501 -0.8802106,-0.312501 -0.5260434,0 -0.8385443,0.322917 -0.312501,0.31771 -0.3697929,0.906253 z"
         style="font-weight:bold;font-size:10.6667px;-inkscape-font-specification:'Menlo, Bold';fill:#000000"
         id="path618" />
      <path
         d="m 18.132097,23.397035 q -0.385418,0.223959 -0.828127,0.333334 -0.44271,0.114584 -0.953128,0.114584 -1.348963,0 -2.109382,-0.812503 -0.760419,-0.812502 -0.760419,-2.250007 0,-1.442713 0.765627,-2.255215 0.765628,-0.817711 2.11459,-0.817711 0.468752,0 0.901045,0.109375 0.437501,0.109375 0.869794,0.338543 v 1.395838 q -0.333334,-0.28646 -0.734377,-0.437502 -0.395835,-0.15625 -0.822919,-0.15625 -0.744794,0 -1.145837,0.473959 -0.401043,0.47396 -0.401043,1.348963 0,0.875003 0.401043,1.343754 0.401043,0.468752 1.145837,0.468752 0.44271,0 0.828127,-0.145834 0.385418,-0.151042 0.729169,-0.453126 z"
         style="font-weight:bold;font-size:10.6667px;-inkscape-font-specification:'Menlo, Bold';fill:#000000"
         id="path620" />
      <path
         d="m 22.621695,16.204304 v 1.656255 h 1.994798 v 1.171879 h -1.994798 v 2.760425 q 0,0.390626 0.1875,0.562502 0.192709,0.166667 0.635419,0.166667 h 1.171879 v 1.171879 h -1.281254 q -1.312505,0 -1.776048,-0.416668 -0.463543,-0.421877 -0.463543,-1.557297 V 19.032438 H 19.60606 v -1.171879 h 1.489588 v -1.656255 z"
         style="font-weight:bold;font-size:10.6667px;-inkscape-font-specification:'Menlo, Bold';fill:#000000"
         id="path622" />
      <path
         d="m 26.600875,17.860559 h 3.020842 v 4.661473 h 1.89584 v 1.171879 h -5.322934 v -1.171879 h 1.901048 v -3.489594 h -1.494796 z m 1.494796,-2.838551 h 1.526046 v 1.781256 h -1.526046 z"
         style="font-weight:bold;font-size:10.6667px;-inkscape-font-specification:'Menlo, Bold';fill:#000000"
         id="path624" />
      <path
         d="m 35.720696,17.350141 v 0.510418 h 1.791672 v 1.171879 h -1.791672 v 4.661473 h -1.526047 v -4.661473 h -1.416671 v -1.171879 h 1.416671 v -0.406251 q 0,-1.052087 0.437502,-1.458338 0.437501,-0.406252 1.625005,-0.406252 h 1.255212 v 1.171879 h -1.192712 q -0.343751,0 -0.468752,0.125 -0.119792,0.125001 -0.130208,0.463544 z"
         style="font-weight:bold;font-size:10.6667px;-inkscape-font-specification:'Menlo, Bold';fill:#000000"
         id="path626" />
      <path
         d="m 41.996756,24.324121 q -0.307293,0.822919 -0.739586,1.19792 -0.427084,0.38021 -1.04167,0.38021 h -1.26042 v -1.161462 h 0.619793 q 0.468752,0 0.687503,-0.161459 0.21875,-0.15625 0.442709,-0.734377 l 0.114584,-0.312501 -2.218757,-5.671893 h 1.604172 l 1.333337,3.78647 1.276046,-3.78647 h 1.604172 z"
         style="font-weight:bold;font-size:10.6667px;-inkscape-font-specification:'Menlo, Bold';fill:#000000"
         id="path628" />
    </g>
  </g>
  <g
     id="b5503098-64d6-400b-bfd2-2c265d125e92"
     data-name="FND GRAPH">
    <rect
       x="8.22422"
       y="264.4852"
       width="28.55155"
       height="39.15691"
       rx="2.83465"
       fill="#1f1f1f"
       id="rect12" />
    <rect
       x="8.22422"
       y="308.77924"
       width="28.55155"
       height="39.15691"
       rx="2.83465"
       fill="#1f1f1f"
       id="rect14" />
    <g
       id="g32" />
  </g>
  <g
     id="e4010d8f-0121-4370-b488-926c9d38c6c2"
     data-name="FND TXT">
    <g
       id="g61" />
    <g
       id="g79">
      <path
         d="M12.56543,272.00684v-.01368a2.45207,2.45207,0,0,1,2.52734-2.45214,2.42876,2.42876,0,0,1,2.5127,2.43847v.01367a2.45133,2.45133,0,0,1-2.52637,2.45264A2.42969,2.42969,0,0,1,12.56543,272.00684Zm3.95019,0v-.01368a1.441,1.441,0,0,0-1.43652-1.49023,1.41853,1.41853,0,0,0-1.42285,1.47656v.01367a1.44078,1.44078,0,0,0,1.43652,1.49073A1.41866,1.41866,0,0,0,16.51562,272.00684Z"
         fill="#f0f0f0"
         id="path71" />
      <path
         d="M18.68457,272.332v-2.229a.522.522,0,0,1,1.04395,0v2.20166c0,.77246.38574,1.17236,1.02246,1.17236s1.02246-.38623,1.02246-1.13818V270.103a.522.522,0,0,1,1.04394,0v2.19482A1.90931,1.90931,0,0,1,20.7373,274.439,1.88221,1.88221,0,0,1,18.68457,272.332Z"
         fill="#f0f0f0"
         id="path73" />
      <path
         d="M25.16992,270.584H24.167a.481.481,0,1,1,0-.96191h3.04785a.481.481,0,1,1,0,.96191H26.21289v3.29981a.52149.52149,0,0,1-1.043,0Z"
         fill="#f0f0f0"
         id="path75" />
      <path
         d="M31.13086,270.61133l-.36621.09472a.85161.85161,0,0,1-.18262.02735.45815.45815,0,0,1-.45508-.44727.46341.46341,0,0,1,.34571-.44726l.67089-.19629a1.84676,1.84676,0,0,1,.48829-.08838h.01269a.515.515,0,0,1,.51563.51514v3.8208a.51465.51465,0,1,1-1.0293,0Z"
         fill="#f0f0f0"
         id="path77" />
    </g>
    <g
       id="g89">
      <path
         d="M11.88379,316.55176v-.01367a2.45207,2.45207,0,0,1,2.52734-2.45215,2.42876,2.42876,0,0,1,2.5127,2.43847v.01368a2.45133,2.45133,0,0,1-2.52637,2.45263A2.42969,2.42969,0,0,1,11.88379,316.55176Zm3.95019,0v-.01367a1.441,1.441,0,0,0-1.43652-1.49024,1.41853,1.41853,0,0,0-1.42285,1.47656v.01368a1.44077,1.44077,0,0,0,1.43652,1.49072A1.41865,1.41865,0,0,0,15.834,316.55176Z"
         fill="#f0f0f0"
         id="path81" />
      <path
         d="M18.00293,316.877v-2.229a.522.522,0,0,1,1.044,0v2.20166c0,.77246.38574,1.17236,1.02246,1.17236s1.02246-.38623,1.02246-1.13818V314.648a.522.522,0,0,1,1.04394,0v2.19482a1.90931,1.90931,0,0,1-2.08008,2.14112A1.88222,1.88222,0,0,1,18.00293,316.877Z"
         fill="#f0f0f0"
         id="path83" />
      <path
         d="M24.48828,315.12891H23.48535a.481.481,0,1,1,0-.96192H26.5332a.481.481,0,1,1,0,.96192h-1.002v3.2998a.52149.52149,0,1,1-1.043,0Z"
         fill="#f0f0f0"
         id="path85" />
      <path
         d="M29.80469,317.89307l1.34863-1.104c.58887-.48144.81934-.74511.81934-1.13867a.58137.58137,0,0,0-.63672-.61621,1.00047,1.00047,0,0,0-.77149.41309.47889.47889,0,0,1-.35351.14941.4712.4712,0,0,1-.47364-.47461.52436.52436,0,0,1,.12208-.32519,1.86607,1.86607,0,0,1,1.54492-.69776,1.4621,1.4621,0,0,1,1.63281,1.46338v.01367c0,.793-.40723,1.18555-1.24707,1.83594l-.77246.59619H32.6709a.45417.45417,0,0,1,.4541.4541.448.448,0,0,1-.4541.44678H30.0957a.49985.49985,0,0,1-.56152-.49414A.6595.6595,0,0,1,29.80469,317.89307Z"
         fill="#f0f0f0"
         id="path87" />
    </g>
  </g>
  <g
     id="fac5544c-5b8c-4438-963a-83a3f9fe99e5"
     data-name="components"
     style="display:none"
     inkscape:groupmode="layer">
    <circle
       id="b92382ac-649f-4dc4-bbd7-fad5a30774ed"
       data-name="Xfade#RoundBlackKnob"
       cx="22.5"
       cy="72.999901"
       r="5"
       style="fill:#ff0000" />
    <circle
       id="b8673b1f-b710-417d-892b-3d18a6cd5e21"
       data-name="XfadeAtv#Trimpot"
       cx="22.5"
       cy="109.44009"
       r="5"
       style="fill:#ff0000" />
    <circle
       id="afea6672-c63f-4566-a5e8-a97de674cfe6"
       data-name="In1#PJ301MPort"
       cx="22.5"
       cy="199.3996"
       r="5"
       style="fill:#00ff00" />
    <circle
       id="ad266a24-df2d-4cad-85b6-31c7e4222897"
       data-name="In2#PJ301MPort"
       cx="22.5"
       cy="244.28709"
       r="5"
       style="fill:#00ff00" />
    <circle
       id="bca878dd-cc3b-4da0-887f-d21d8adf7306"
       data-name="Out1#PJ301MPort"
       cx="22.5"
       cy="289.14182"
       r="5"
       style="fill:#0000ff" />
    <circle
       id="bea69b91-82fe-4236-8a53-111b5c239a18"
       data-name="Out2#PJ301MPort"
       cx="22.5"
       cy="334"
       r="5"
       style="fill:#0000ff" />
    <circle
       id="a63622a5-b2cf-4d2e-8dcd-075235f9a23a"
       data-name="Xfade#PJ301MPort"
       cx="22.5"
       cy="156.45821"
       r="5"
       style="fill:#00ff00" />
  </g>
</svg>
